<?xml version="1.0" encoding="utf-8"?>
<!-- Generator: Adobe Illustrator 24.0.2, SVG Export Plug-In . SVG Version: 6.00 Build 0)  -->
<svg version="1.1" id="Layer_2" xmlns="http://www.w3.org/2000/svg" xmlns:xlink="http://www.w3.org/1999/xlink" x="0px" y="0px"
	 viewBox="0 0 1453 1232" style="enable-background:new 0 0 1453 1232;" xml:space="preserve">
<style type="text/css">
	.st0{fill:#5276ED;}
</style>
<path class="st0" d="M1070.5,628.5l-76-54l-32,9l-118-63l-86-81.4l0.5-1.4c-0.5-0.4-1-0.8-1.5-1.2c-3.3-2.5,1-11.3,6-11.2l0,0v-7.8
	l-2-7l-85-61l-24,1l-91,48l-100,70l-68,66v33l86,59l9,0.9l6.1-2.1c-0.4-0.3-0.7-0.5-1.1-0.8c-7-5,2-16,9-11l8.3,6.5l2.4,1.3l5.3,2.3
	l3,2.1l113,59.8l83.9,77.1l-7.9,13v14l78,55l33,4l29-14l38-22l138-98l30-27.3l19.8-19.5l0.2-15.2L1070.5,628.5z M490.5,532.5l-3,13
	v16l5.9,4.8l3.2,5.2l-3,10.9l-14,2L434,551.6l2.5-4.1l79-58l14-2l12,8.7L490.5,532.5z M695.5,424.5l-17-3l-10-5l-18,2l-52,38h-20
	l-7.3-6.1l79.3-53.9l13-4l13,1l40.9,28.5L695.5,424.5z M789.5,799.5l-12-3L760.2,785l46.3-21.5l59-25l10,1l4.8,3.8L789.5,799.5z
	 M944.5,698.5l-6,2l-11.8-7.4l28.8-34.8l36-39.1l9-0.7l23.1,15.9L944.5,698.5z"/>
</svg>
