<?xml version="1.0" encoding="utf-8"?>
<!-- Generator: Adobe Illustrator 24.0.2, SVG Export Plug-In . SVG Version: 6.00 Build 0)  -->
<svg version="1.1" id="Layer_1" xmlns="http://www.w3.org/2000/svg" xmlns:xlink="http://www.w3.org/1999/xlink" x="0px" y="0px"
	 viewBox="0 0 1453 1232" style="enable-background:new 0 0 1453 1232;" xml:space="preserve">
<style type="text/css">
	.st0{fill:#D9534F;}
	.st1{fill:#FFFFFF;stroke:#000000;stroke-miterlimit:10;}
	.st2{fill:none;stroke:#000000;stroke-linecap:round;stroke-miterlimit:10;}
	.st3{fill:none;stroke:#000000;stroke-miterlimit:10;}
</style>
<g id="cables">
	<g>
		<path class="st0" d="M1075.95,1132.26c-5.33,0-11-1.38-15.88-4.83c-8.15-5.76-199.21-140.85-199.21-140.85l2.89-4.08
			c0,0,191.06,135.09,199.21,140.85c7.27,5.14,17.38,4.69,23.59,1.58c3.84-1.92,6.21-3.19,8.51-4.42c1.85-0.99,3.6-1.93,5.96-3.12
			c0.69-0.35,6.73-3.54,7.2-8.8c0.35-3.83-2.53-8.18-8.33-12.56c-4.33-3.28-124.06-88.05-203.29-144.15
			c-43.49-30.79-77.84-55.11-80.78-57.22c-11.63-8.36-14.58-12.1-14.58-26.96c0-10.28-0.03-21.16-0.03-21.16l5.02,0.63
			c0,0,0.01,10.25,0.01,20.54c0,12.89,1.89,15.28,12.5,22.9c2.93,2.1,37.27,26.42,80.75,57.2
			c83.99,59.47,199.02,140.91,203.42,144.24c7.35,5.56,10.81,11.28,10.29,17c-0.7,7.78-8.39,12.04-9.93,12.82
			c-2.31,1.17-4.03,2.09-5.86,3.06c-2.33,1.25-4.74,2.53-8.64,4.48C1085.32,1131.14,1080.77,1132.26,1075.95,1132.26z"/>
		<path class="st0" d="M863.59,987.89c-0.18,0-0.36-0.01-0.54-0.04c-1.91-0.29-3.22-2.08-2.93-3.99l4.37-28.34
			c0.29-1.91,2.07-3.23,3.99-2.93c1.91,0.29,3.22,2.08,2.93,3.99l-4.37,28.34C866.78,986.66,865.29,987.89,863.59,987.89z"/>
		<g>
			<path class="st1" d="M825.1,991.99c0,0,35.45-26.63,43.3-31.86c5.19-3.46-4.62-18.47-15.08-10.76
				c-4.7,3.46-43.62,31.14-43.62,31.14C804.91,984.37,818.48,997.36,825.1,991.99z"/>
			<path class="st2" d="M825.1,991.99c1.62-2.18-0.51-6.52-4.76-9.69s-9.02-3.98-10.64-1.8"/>
		</g>
		<path class="st0" d="M819.69,992.26c-1.78,0-3.3-1.35-3.48-3.15c-0.19-1.92,1.21-3.64,3.14-3.83l43.9-4.37
			c1.94-0.19,3.64,1.21,3.83,3.14c0.19,1.92-1.21,3.64-3.14,3.83l-43.9,4.37C819.92,992.25,819.8,992.26,819.69,992.26z"/>
	</g>
	<g>
		<path class="st0" d="M1248.74,794.72c-27.52-19.49-56.2-39.8-81.97-58.04c-43.41-30.73-77.69-55.01-80.62-57.11
			c-5.76-4.14-8.95-6.74-10.67-10.31l-3.63,3.79c2.22,3.62,5.8,6.57,11.38,10.58c2.94,2.11,37.23,26.39,80.64,57.13
			c24.64,17.44,53.19,37.66,80.98,57.34"/>
		<g>
			<path class="st3" d="M1096.56,755.63c-10.26,7.31-19.45,13.85-19.45,13.85c-4.79,3.86,8.77,16.85,15.4,11.48
				c0,0,9.09-6.83,19.38-14.47"/>
			<path class="st2" d="M1092.51,780.96c1.62-2.18-0.51-6.52-4.76-9.69s-9.02-3.98-10.64-1.8"/>
		</g>
		<path class="st0" d="M1118.55,771.08l-31.8,3.16c-1.92,0.19-3.33,1.91-3.14,3.83c0.18,1.81,1.7,3.15,3.48,3.15
			c0.12,0,0.23-0.01,0.35-0.02l39.78-3.96L1118.55,771.08z"/>
	</g>
</g>
</svg>
