<?xml version="1.0" encoding="utf-8"?>
<!-- Generator: Adobe Illustrator 24.0.2, SVG Export Plug-In . SVG Version: 6.00 Build 0)  -->
<svg version="1.1" id="Layer_1" xmlns="http://www.w3.org/2000/svg" xmlns:xlink="http://www.w3.org/1999/xlink" x="0px" y="0px"
	 viewBox="0 0 1453 1232" style="enable-background:new 0 0 1453 1232;" xml:space="preserve">
<style type="text/css">
	.st0{fill:#5276ED;}
</style>
<g id="back_shading">
	<g>
		<path class="st0" d="M1410.26,897.26l-0.01-0.05l-0.01-0.01C1410.25,897.21,1410.26,897.24,1410.26,897.26z"/>
		<path class="st0" d="M1412.5,920.22c0,2.68,0,5.3,0,7.28c0,3-4,6-10,6s-9-3-9-6c0-5,0-14,0-14s0-3,0-5s-1-6-5-11
			c-6-5-84.48-61.81-95-68c-17-10-37-9-37-9l3,1c0,0-1,1-2,3s-7,4-12,2s-6-6-5-9s3-6,5-10c1.21-2.42,4.25-4.1,8.01-5.06h-0.01
			c0-2.62,0-6.06,0-9.98l-0.52-0.15l-27.35,23.3l-0.13,8.88c7-6,18,8,13,12c-0.53,0.42-1.32,1.06-2.28,1.85l0.01,0.02l4.26,3.13
			l-22.5,19.61l-5.3,2.24l-5.95-0.5c-0.05,0.04-0.08,0.06-0.08,0.06l-0.22-0.09l-3.95-0.33l-22.5-10.76l-14.5,1.76l-44.65,31.4
			c9.29,6.3,20.97,14.49,25.65,17.6c6,4,0,13,0,13s-5,7-9,5c-4.88-3.25-22.33-15.77-32.44-22.48l-1.09,7.98l-0.34,9.5l3.38-0.64
			l3.56,2.56l2.97,5.93l0.65,4.35l-1.56,2.7l3.21,3.1l-16.94,10.04c5.63,1.93,10.9,4.28,14.59,6.96c8,6,91,65,95,68s8,9,10,13
			c1.65,3.29,2.6,7.92,2.89,11.69v-0.14l14.11-8.55l20-4l3.92,2.09l5.08-3.09c3-2,6.93-2.45,10.92-0.43c4.69,2.38,6.98,7.31,5.11,11
			c-0.54,1.06-1.36,1.9-2.37,2.51l7.34,3.92l13-2l56.72-39.8l3.28-10.8v-6.77v-7.63l-10-9l0.07-0.06l-8.07-7.37l1.96-3.45
			l25.04-23.11l12.97,6.66l3.37-2.88c2.61-2.49,6.4-3.61,10.68-2.3c5.03,1.54,8.13,6,6.92,9.96c-0.35,1.14-1.01,2.11-1.91,2.89
			l-1.53,1.35l6.48,3.33l17-13v-15L1412.5,920.22z"/>
		<path class="st0" d="M1412.5,905.02l-0.84-2.9c0.55,2.63,0.84,5.28,0.84,7.38V905.02z"/>
		<path class="st0" d="M1291,802.59l-8.5,0.91l-8.55-5.13l-0.45-0.13c0,1.85,0,3.51,0,4.89h-0.01c10.27,2.08,23.72,6.07,31.01,11.37
			c8,6,91,65,95,68c2.1,1.57,4.19,3.97,6,6.47l0,0l-1-12.47l-103-72L1291,802.59z"/>
		<path class="st0" d="M1221.5,1057.09c0,2.37,0,4.64,0,6.41c0,3-4,6-10,6s-9-3-9-6c0-5,0-14,0-14s0-3,0-5s-1-6-5-11
			c-6-5-84.48-61.81-95-68c-17-10-37-9-37-9l3,1c0,0-1,1-2,3s-7,4-12,2s-6-6-5-9s3-6,5-10c0.6-1.21,1.67-2.23,3.05-3.07l-3.47-2.53
			l-0.58-0.4l-5,2.95c0,13.26,0,25.26,0,27.05c0,3-6,5-10,5s-10-2-10-5c0-1.53,0-7.44,0-15.26l-14,8.26v15.37l20,16.9v5.73l2,8
			l102.44,72.6l16.56,0.4l19-7l38,19l17-12v-7v-8L1221.5,1057.09z"/>
	</g>
</g>
</svg>
