<?xml version="1.0" encoding="utf-8"?>
<!-- Generator: Adobe Illustrator 24.0.2, SVG Export Plug-In . SVG Version: 6.00 Build 0)  -->
<svg version="1.1" id="Layer_1" xmlns="http://www.w3.org/2000/svg" xmlns:xlink="http://www.w3.org/1999/xlink" x="0px" y="0px"
	 viewBox="0 0 1453 1232" style="enable-background:new 0 0 1453 1232;" xml:space="preserve">
<style type="text/css">
	.st0{fill:#5276ED;}
</style>
<g id="front_shading">
	<g>
		<path class="st0" d="M110.5,197.5c-2.69-1.92-7.6-5.47-12.69-9.17l-1.31,5.17v8.86l4.69,0.4l5.14,2.97l2.57,4.15l-0.2,3.76
			l-3.03,3.58l9.36,8.09l-0.04,0.04c0.17,0.05,0.34,0.1,0.51,0.15c10,3,18,7,33,15c1.29,0.69,5.19,3.3,10.81,7.18
			c-5.23-7.52-11.76-16.52-14.81-20.18C139.5,221.5,117.5,202.5,110.5,197.5z"/>
		<path class="st0" d="M161.02,250.16c0,0,8.06,12.86,5.48,8.34C165.64,257,163.58,253.89,161.02,250.16z"/>
		<path class="st0" d="M145.73,376.95c1.52-0.46,3.08-0.56,4.45-0.32h0.01l0,0c0.87,0.15,1.66,0.44,2.31,0.87
			c0.34,0.23,1.03,0.71,1.97,1.39l0,0l9.75,6.56l6.27-1.95l27,16l32-28v-15l-11.05-7.07l23.06-18.87
			c-9.76-6.99-24.59-17.56-40.01-28.54c0,5.34,0,14.26,0,23.84c4.52,4.72,16.13,23.57,13.49,29.54c-2.8,6.34-4.75,7.1-13.49,6.61
			c0,2.77,0,4.72,0,5.49c0,5-6,8-11,8s-9-5-9-8c0-1.75,0-20.43,0-37.13l-14.7-17.17l-18.3-18.7l-60.78-43.26l-9.08-4.64l-12.56-5.98
			c-0.1,1.37-0.54,1.29,0.42,2.88c3,5,8,11,14,15c6,4,33,23,37,26s2,9-1,13s-7,6-10,4s-35.93-26.09-40-29c-7-5-19.32-18.3-22-25
			c-1.03-2.57-1.52-6.72-0.95-10.83l-1.91,1.83l-8.14,6v16l20,19.91l-4,5.09l1,26l93.78,65.56L145.73,376.95z"/>
		<path class="st0" d="M406.5,209.02c-1.02-0.72,1.04-31.78,0-32.52c-30.37-21.44-68.76-48.63-72-51.01
			c-5.26-3.86-9.64-8.33-13.22-13.08l-5.44-3.68l-14.45-0.61c24.69,17.53,51.25,36.32,54.11,38.37c7,5,32,35,36,40s9,14,11,18
			s4,8,4,13c0,3-3,8-10,8s-11-3.9-11-9c0-3-1.16-5.31-3-9c-2-4-5-8-9-13s-27-32-34-37c-4.36-3.12-38.63-26.81-63.83-44.23l-0.23,0.1
			L252.5,101.5c0,3.46,0,8.18,0,9.99c0,3-5,5-9,5s-9-2-9-5c0-1.16,0-4.44,0-8.12l-9,5.12l-0.09,7.62l2.77-0.99l3.07,1.38l3.86,5.54
			l1.02,2.97l-0.43,3.76l-1.9,2.83l7.82,8.42L217.5,153.5l-18,4l-30-16l-14.19,2.14l-42.16,31.35c7.7,5.59,15.2,11.01,17.35,12.51
			c10,7,24.47,21.47,29,26c11,11,22,31,26,38c1.56,2.74,6.11,11.58,9.96,21.65l0,0c23.86,16.95,50.18,35.81,62.14,44.24l0.64-0.52
			l5,0.28l4.31,2.9l2.68,4.76v2.64c2.3,2.53,4.49,5.48,6.46,8.66l0.07,0.09l12.73-1.7l59-42.67l2-9.33v-15l-11.33-12.84l37.33-22.16
			l2.69,1.83l7.2-4.18l2.8-0.12l3.83,2.09l4.03,3.76l1.87,3.81l-0.19,2.12l-2.42,2.81l-1.04,0.65l6.23,4.24l38-22v-15l-13.09-10.74
			l0.09,7.52l-1.84,2.9l-3.69,2.11l-5.01,1.2l-5.8-1.47L406.5,209.02z"/>
	</g>
	<polygon class="st0" points="110.59,245.27 165.81,284.54 181.74,301.35 180.2,293.27 178.15,285.4 134.87,254.81 123.33,249.2 
		114.88,246 	"/>
</g>
</svg>
