<?xml version="1.0" encoding="utf-8"?>
<!-- Generator: Adobe Illustrator 24.0.2, SVG Export Plug-In . SVG Version: 6.00 Build 0)  -->
<svg version="1.1" id="Layer_1" xmlns="http://www.w3.org/2000/svg" xmlns:xlink="http://www.w3.org/1999/xlink" x="0px" y="0px"
	 viewBox="0 0 1453 1232" style="enable-background:new 0 0 1453 1232;" xml:space="preserve">
<style type="text/css">
	.st0{fill:#5276ED;}
</style>
<g id="floor_1_">
	<path class="st0" d="M501.21,291.55c69.2-24.25,145.85-37.08,225.29-37.08c136.31,0,264.43,37.72,360.75,106.21
		c96.01,68.27,148.89,158.95,148.89,255.32c0,55.64-17.63,109.39-51.01,158.01l4.8,3.38c4.05-5.9,7.89-11.89,11.5-17.97
		c27.01-45.41,40.71-93.67,40.71-143.43c0-49.76-13.7-98.01-40.71-143.43c-26.03-43.77-63.28-83.06-110.7-116.78
		c-47.35-33.67-102.46-60.1-163.82-78.55C863.43,258.15,796,248.47,726.5,248.47s-136.93,9.68-200.41,28.77
		c-10.45,3.14-20.71,6.54-30.79,10.14L501.21,291.55z"/>
	<path class="st0" d="M286.5,433.35c21.69-26.19,48.21-50.6,79.25-72.67c29.23-20.78,61.4-38.72,95.83-53.64l-5.67-4
		c-33.8,14.86-65.13,32.48-93.64,52.75c-31.45,22.37-58.42,47.18-80.62,74.13L286.5,433.35z"/>
	<path class="st0" d="M946.4,942.32c-67.78,23.04-142.51,35.21-219.9,35.21c-136.31,0-264.43-37.72-360.75-106.21
		C269.73,803.05,216.86,712.37,216.86,616c0-54.18,16.71-106.56,48.41-154.17l-4.79-3.38c-3.1,4.66-6.07,9.37-8.91,14.13
		c-27.01,45.41-40.71,93.67-40.71,143.43c0,49.76,13.7,98.02,40.71,143.43c26.03,43.77,63.28,83.06,110.7,116.78
		c47.35,33.67,102.47,60.1,163.82,78.55c63.48,19.09,130.91,28.77,200.41,28.77s136.93-9.68,200.41-28.77
		c8.6-2.59,17.07-5.35,25.43-8.25L946.4,942.32z"/>
	<g>
		<path class="st0" d="M1097.83,871.05c27.06-20,50.65-41.87,70.55-65.41l-4.86-3.43c-20.05,23.57-44.06,45.67-71.77,65.87
			C1093.82,869.04,1095.87,870.04,1097.83,871.05z"/>
		<path class="st0" d="M1028.5,907.25c-13.61,7.13-27.64,13.76-42.07,19.85l5.71,4.02c12.46-5.34,24.58-11.06,36.37-17.14
			C1028.5,911.58,1028.5,909.31,1028.5,907.25z"/>
		<path class="st0" d="M1078.99,884.3c-2.01-0.79-4.56-1.74-7.43-2.29c-7.24,4.73-14.63,9.3-22.18,13.7
			c-0.56,2.1-0.88,4.37-0.88,6.79c0,0.17,0,0.39,0,0.64C1058.97,897.16,1069.14,890.88,1078.99,884.3z"/>
	</g>
</g>
</svg>
