<?xml version="1.0" encoding="utf-8"?>
<!-- Generator: Adobe Illustrator 24.0.2, SVG Export Plug-In . SVG Version: 6.00 Build 0)  -->
<svg version="1.1" id="Layer_1" xmlns="http://www.w3.org/2000/svg" xmlns:xlink="http://www.w3.org/1999/xlink" x="0px" y="0px"
	 viewBox="0 0 1453 1232" style="enable-background:new 0 0 1453 1232;" xml:space="preserve">
<style type="text/css">
	.st0{fill:#FFFFFF;stroke:#000000;stroke-miterlimit:10;}
	.st1{fill:none;stroke:#000000;stroke-linecap:round;stroke-miterlimit:10;}
</style>
<g id="cables">
	<g>
		<path d="M967.26,996.94c-4.6,0-8.83-1.65-12.02-3.9c-1.4-0.98-19.68-13.88-42.76-30.17c-41.41-29.22-98.12-69.23-100.78-71.09
			c-6.95-4.86-10.48-12.01-10.48-21.25v-24.18l5,0.54v23.64c0,7.61,2.73,13.22,8.34,17.15c2.66,1.86,59.38,41.88,100.8,71.1
			c23.08,16.29,41.36,29.18,42.76,30.17c2.16,1.52,9.84,5.99,18.12-0.13l8.71-6.45c4.26-3.15,7.71-5.71,10.93-8.08
			c4.25-3.13,5.15-9.85,2.05-15.3l-1.76-3.09c-11.43-20.11-70.09-123.27-72.59-127.66c-2.64-4.64-11.92-15.01-17.44-18.86
			c-5.94-4.15-205.24-143.39-205.24-143.39l2.86-4.1c0,0,199.3,139.25,205.24,143.39c6.09,4.25,15.98,15.33,18.92,20.49
			c2.5,4.39,61.16,107.55,72.59,127.66l1.76,3.09c4.33,7.61,2.82,17.18-3.43,21.79c-3.21,2.37-6.66,4.93-10.92,8.08l-8.71,6.45
			C975.23,995.78,971.12,996.94,967.26,996.94z"/>
		<path d="M701.97,666.79c-0.18,0-0.36-0.01-0.54-0.04c-1.91-0.29-3.22-2.08-2.93-3.99l4.37-28.34c0.29-1.91,2.08-3.23,3.99-2.93
			c1.91,0.29,3.22,2.08,2.93,3.99l-4.37,28.34C705.16,665.56,703.67,666.79,701.97,666.79z"/>
		<g>
			<path class="st0" d="M663.48,670.89c0,0,35.45-26.63,43.3-31.86c5.19-3.46-4.62-18.47-15.08-10.76
				c-4.7,3.46-43.62,31.14-43.62,31.14C643.29,663.27,656.85,676.26,663.48,670.89z"/>
			<path class="st1" d="M663.48,670.89c1.62-2.18-0.51-6.52-4.76-9.69s-9.02-3.98-10.64-1.8"/>
		</g>
		<path d="M658.06,671.16c-1.78,0-3.3-1.35-3.48-3.15c-0.19-1.92,1.21-3.64,3.14-3.83l43.9-4.37c1.9-0.19,3.64,1.21,3.83,3.14
			s-1.21,3.64-3.14,3.83l-43.9,4.37C658.29,671.15,658.18,671.16,658.06,671.16z"/>
	</g>
	<g>
		<path d="M1253.5,777.23l-6.9,5.11c-3.97,2.94-8.09,4.1-11.94,4.1c-4.6,0-8.83-1.65-12.02-3.9c-1.43-1.01-20.61-14.54-44.51-31.41
			c-40.69-28.71-96.41-68.02-99.03-69.85c-3.18-2.22-5.9-5.19-7.63-8.35l3.88-3.67c1.37,3.17,3.57,5.8,6.62,7.93
			c2.63,1.84,58.35,41.16,99.04,69.87c23.9,16.86,43.08,30.4,44.51,31.4c2.16,1.52,9.84,5.99,18.11-0.13l8.73-6.46
			c0.39-0.29,0.77-0.57,1.15-0.85v6.21H1253.5z"/>
		<path d="M1254.66,729.75c-20.15-35.44-61.6-108.34-63.69-112.01c-2.64-4.64-11.92-15.01-17.44-18.86
			c-5.94-4.15-205.24-143.39-205.24-143.39l2.86-4.1c0,0,199.3,139.24,205.24,143.39c6.09,4.25,15.98,15.33,18.92,20.49
			c2.02,3.55,40.85,71.83,61.63,108.39L1254.66,729.75z"/>
		<path d="M969.36,456.3c-0.18,0-0.36-0.01-0.54-0.04c-1.91-0.29-3.22-2.08-2.93-3.99l4.37-28.34c0.29-1.91,2.08-3.22,3.99-2.93
			s3.22,2.08,2.93,3.99l-4.37,28.34C972.55,455.06,971.06,456.3,969.36,456.3z"/>
		<g>
			<path class="st0" d="M930.88,460.4c0,0,35.45-26.63,43.3-31.86c5.19-3.46-4.62-18.47-15.08-10.76
				c-4.7,3.46-43.62,31.14-43.62,31.14C910.68,452.78,924.25,465.76,930.88,460.4z"/>
			<path class="st1" d="M930.88,460.4c1.62-2.18-0.51-6.52-4.76-9.69s-9.02-3.98-10.64-1.8"/>
		</g>
		<path d="M925.46,460.66c-1.78,0-3.3-1.35-3.48-3.15c-0.19-1.92,1.21-3.64,3.14-3.83l43.9-4.37c1.94-0.19,3.64,1.21,3.83,3.14
			c0.19,1.92-1.21,3.64-3.14,3.83l-43.9,4.37C925.69,460.66,925.57,460.66,925.46,460.66z"/>
	</g>
</g>
</svg>
